<svg width="218" height="196" viewBox="0 0 218 196" fill="none" xmlns="http://www.w3.org/2000/svg">
<g id="volunteering/bro">
<g id="Clouds">
<path id="Vector" d="M160.392 21.5308C156.972 19.6663 155.402 21.2223 154.173 19.6663C152.944 18.1103 157.593 14.0684 148.276 10.0264C148.276 10.0264 147.654 1.32096 134.902 1.00795C122.15 0.694934 125.575 9.71792 122.155 11.8954C118.734 14.0729 117.8 10.6524 114.379 12.8299C110.959 15.0074 112.506 19.3442 109.707 19.9794C106.908 20.6145 103.174 17.1804 99.7538 19.3579C96.3334 21.5354 96.3334 23.3998 94.7637 23.3998C93.1941 23.3998 90.0957 22.1568 88.2313 23.3998C86.3668 24.6428 84.1893 26.1988 84.1893 26.1988H162.883C162.883 26.1988 163.813 23.3998 160.392 21.5308Z" stroke="#263238" stroke-linecap="round" stroke-linejoin="round"/>
<path id="Vector_2" d="M113.853 20.2515C113.407 20.503 112.943 20.7213 112.465 20.9047" stroke="#263238" stroke-linecap="round" stroke-linejoin="round"/>
<path id="Vector_3" d="M130.683 5.73486C129.912 6.07922 129.234 6.60312 128.706 7.26285C128.178 7.92258 127.815 8.699 127.648 9.52733C127.077 12.3762 125.748 14.2724 124.233 14.463C122.717 14.6535 117.02 14.0819 116.067 16.1732C115.813 16.7845 115.635 17.4243 115.536 18.0785" stroke="#263238" stroke-linecap="round" stroke-linejoin="round"/>
<path id="Vector_4" d="M83.5904 43.8862C81.7985 42.9108 80.982 43.7228 80.3287 42.9108C79.6755 42.0988 82.1206 39.9757 77.2303 37.8527C77.2303 37.8527 76.9037 33.289 70.2215 33.1257C63.5393 32.9624 65.3267 37.6894 63.5348 38.8507C61.7429 40.012 61.2666 38.1975 59.452 39.3406C57.6374 40.4838 58.4767 42.7657 57.0069 43.0923C55.5371 43.4189 53.5819 41.6225 51.79 42.7657C49.9981 43.9088 49.9754 44.8842 49.1815 44.8842C48.3876 44.8842 46.7364 44.2309 45.7565 44.8842C44.7766 45.5374 43.638 46.3494 43.638 46.3494H84.8878C84.8878 46.3494 85.3778 44.866 83.5904 43.8862Z" stroke="#263238" stroke-linecap="round" stroke-linejoin="round"/>
<path id="Vector_5" d="M59.189 43.2197C58.9529 43.3485 58.709 43.4621 58.4586 43.56" stroke="#263238" stroke-linecap="round" stroke-linejoin="round"/>
<path id="Vector_6" d="M68.0123 35.603C67.6076 35.7832 67.2519 36.0575 66.9749 36.4032C66.6979 36.7489 66.5077 37.1558 66.42 37.59C66.1206 39.0825 65.4265 40.0805 64.6054 40.1803C63.7843 40.2801 60.8266 39.9807 60.3276 41.0876C60.196 41.4084 60.1016 41.7433 60.0463 42.0856" stroke="#263238" stroke-linecap="round" stroke-linejoin="round"/>
</g>
<g id="Trees">
<path id="Vector_7" d="M136.935 78.0094C136.935 78.0094 158.315 80.1279 169.143 93.3789C169.143 93.3789 180.593 78.0275 201.157 78.3406C206.18 72.2793 209.378 64.9159 210.379 57.1076C211.38 49.2993 210.142 41.3674 206.809 34.2353C203.477 27.1032 198.187 21.0644 191.556 16.822C184.925 12.5796 177.225 10.3081 169.353 10.2719C161.481 10.2358 153.761 12.4365 147.091 16.6179C140.421 20.7992 135.076 26.7892 131.678 33.8904C128.28 40.9916 126.97 48.9118 127.899 56.729C128.828 64.5461 131.958 71.9386 136.925 78.0457L136.935 78.0094Z" fill="#92E3A9"/>
<path id="Vector_8" opacity="0.5" d="M136.935 78.0094C136.935 78.0094 158.315 80.1279 169.143 93.3789C169.143 93.3789 180.593 78.0275 201.157 78.3406C206.18 72.2793 209.378 64.9159 210.379 57.1076C211.38 49.2993 210.142 41.3674 206.809 34.2353C203.477 27.1032 198.187 21.0644 191.556 16.822C184.925 12.5796 177.225 10.3081 169.353 10.2719C161.481 10.2358 153.761 12.4365 147.091 16.6179C140.421 20.7992 135.076 26.7892 131.678 33.8904C128.28 40.9916 126.97 48.9118 127.899 56.729C128.828 64.5461 131.958 71.9386 136.925 78.0457L136.935 78.0094Z" fill="white"/>
<path id="Vector_9" d="M168.445 13.2017L167.719 176.65H171.33L168.445 13.2017Z" fill="#263238"/>
<path id="Vector_10" d="M169.524 89.3416C169.524 89.3416 176.742 76.3493 189.716 72.3799C189.716 72.3799 176.002 75.628 169.148 86.8148L169.524 89.3416Z" fill="#263238"/>
<path id="Vector_11" d="M169.524 52.5329C169.524 52.5329 176.742 39.5451 189.716 35.5757C189.716 35.5757 176.002 38.8238 169.148 50.0061L169.524 52.5329Z" fill="#263238"/>
<path id="Vector_12" d="M169.524 70.9369C169.524 70.9369 176.742 57.9445 189.716 53.9751C189.716 53.9751 176.002 57.2232 169.148 68.4101L169.524 70.9369Z" fill="#263238"/>
<path id="Vector_13" d="M168.454 61.9143C168.454 61.9143 161.49 48.9264 148.947 44.957C148.947 44.957 162.18 48.2051 168.794 59.392L168.454 61.9143Z" fill="#263238"/>
<path id="Vector_14" d="M168.454 79.9558C168.454 79.9558 161.49 66.9679 148.947 62.9985C148.947 62.9985 162.18 66.2466 168.794 77.4335L168.454 79.9558Z" fill="#263238"/>
<path id="Vector_15" d="M70.0265 94.953C70.0265 94.953 87.7186 96.7087 96.7053 107.682C96.7053 107.682 106.186 94.9803 123.216 95.2298C127.378 90.2098 130.028 84.1108 130.858 77.643C131.688 71.1752 130.663 64.6048 127.903 58.6968C125.144 52.7888 120.762 47.7863 115.27 44.2719C109.777 40.7574 103.399 38.8756 96.8782 38.8456C90.3575 38.8156 83.9624 40.6385 78.4376 44.1022C72.9128 47.5659 68.4856 52.5279 65.6716 58.4102C62.8576 64.2925 61.7725 70.8533 62.5427 77.3284C63.3129 83.8035 65.9066 89.9267 70.022 94.9848L70.0265 94.953Z" fill="#92E3A9"/>
<path id="Vector_16" opacity="0.3" d="M70.0265 94.953C70.0265 94.953 87.7186 96.7087 96.7053 107.682C96.7053 107.682 106.186 94.9803 123.216 95.2298C127.378 90.2098 130.028 84.1108 130.858 77.643C131.688 71.1752 130.663 64.6048 127.903 58.6968C125.144 52.7888 120.762 47.7863 115.27 44.2719C109.777 40.7574 103.399 38.8756 96.8782 38.8456C90.3575 38.8156 83.9624 40.6385 78.4376 44.1022C72.9128 47.5659 68.4856 52.5279 65.6716 58.4102C62.8576 64.2925 61.7725 70.8533 62.5427 77.3284C63.3129 83.8035 65.9066 89.9267 70.022 94.9848L70.0265 94.953Z" fill="white"/>
<path id="Vector_17" d="M96.1202 41.2778L95.5259 176.65H98.5109L96.1202 41.2778Z" fill="#263238"/>
<path id="Vector_18" d="M97.0182 104.339C97.0182 104.339 102.993 93.5784 113.753 90.2759C113.753 90.2759 102.412 92.966 96.7188 102.229L97.0182 104.339Z" fill="#263238"/>
<path id="Vector_19" d="M97.0182 73.854C97.0182 73.854 102.993 63.0935 113.753 59.791C113.753 59.791 102.412 62.4811 96.7188 71.7491L97.0182 73.854Z" fill="#263238"/>
<path id="Vector_20" d="M97.0182 89.0967C97.0182 89.0967 102.993 78.3362 113.753 75.0337C113.753 75.0337 102.412 77.7238 96.7188 86.9918L97.0182 89.0967Z" fill="#263238"/>
<path id="Vector_21" d="M96.1338 81.625C96.1338 81.625 90.3635 70.8645 79.9841 67.562C79.9841 67.562 90.9396 70.2521 96.4196 79.5201L96.1338 81.625Z" fill="#263238"/>
<path id="Vector_22" d="M96.1338 96.5679C96.1338 96.5679 90.3635 85.8074 79.9841 82.5049C79.9841 82.5049 90.9396 85.195 96.4196 94.4629L96.1338 96.5679Z" fill="#263238"/>
</g>
<g id="Plants">
<path id="Vector_23" d="M111.748 176.496C111.684 175.076 111.87 172.381 113.399 168.33C115.794 161.979 119.991 174.681 119.991 174.681C119.991 174.681 119.991 173.17 124.486 168.33C128.982 163.49 132.874 171.959 132.874 171.959C132.874 171.959 130.778 151.699 135.873 153.21C140.967 154.721 140.364 171.959 140.364 171.959C140.364 171.959 143.961 159.257 148.756 159.257C153.551 159.257 154.749 168.33 154.749 168.33C154.749 168.33 155.947 152.303 160.742 151.999C165.537 151.695 170.926 165.309 170.926 165.309C170.926 165.309 169.429 147.163 174.224 146.256C179.019 145.348 180.815 152.906 180.815 152.906C180.815 152.906 185.007 127.806 193.1 130.832C201.193 133.858 194.298 161.68 194.298 161.68C194.298 161.68 202.386 142.323 208.978 146.859C214.97 150.983 207.344 172.599 205.911 176.496H111.748Z" fill="#92E3A9"/>
<path id="Vector_24" d="M208.465 176.455C208.465 176.455 211.976 165.608 210.175 163.794C208.374 161.979 200.603 169.845 200.603 169.845C200.603 169.845 206.297 150.488 197.305 148.07C188.314 145.652 186.822 166.819 186.822 166.819C186.822 166.819 180.23 157.143 178.729 160.772C177.824 162.984 177.317 165.338 177.232 167.727C177.232 167.727 173.938 141.415 166.444 142.627C158.95 143.838 165.845 169.845 165.845 169.845C165.845 169.845 161.653 160.772 156.858 161.68C152.063 162.587 150.249 168.33 150.249 168.33C150.249 168.33 148.153 163.19 146.651 163.19C145.15 163.19 143.358 172.263 143.358 172.263C143.358 172.263 141.543 158.35 138.264 158.958C134.984 159.566 128.075 171.356 128.075 171.356C128.075 171.356 129.277 164.701 125.679 164.401C122.082 164.102 119.986 174.681 119.986 174.681C119.986 174.681 115.191 164.701 112.197 166.515C109.203 168.33 110.632 176.759 110.632 176.759" stroke="#263238" stroke-linecap="round" stroke-linejoin="round"/>
<path id="Vector_25" d="M192.288 176.305L194.897 163.494" stroke="#263238" stroke-linecap="round" stroke-linejoin="round"/>
<path id="Vector_26" d="M173.625 176.496L172.123 168.031" stroke="#263238" stroke-linecap="round" stroke-linejoin="round"/>
<path id="Vector_27" d="M135.732 176.455L137.669 169.541" stroke="#263238" stroke-linecap="round" stroke-linejoin="round"/>
<path id="Vector_28" d="M158.941 176.8L155.647 170.752" stroke="#263238" stroke-linecap="round" stroke-linejoin="round"/>
<path id="Vector_29" d="M192.801 171.356L190.401 166.516" stroke="#263238" stroke-linecap="round" stroke-linejoin="round"/>
<path id="Vector_30" d="M173.625 173.774L175.721 169.541" stroke="#263238" stroke-linecap="round" stroke-linejoin="round"/>
<path id="Vector_31" d="M157.444 173.474L158.941 170.752" stroke="#263238" stroke-linecap="round" stroke-linejoin="round"/>
<path id="Vector_32" d="M136.335 173.887L135.274 170.145" stroke="#263238" stroke-linecap="round" stroke-linejoin="round"/>
<path id="Vector_33" d="M98.0797 176.564C98.1296 175.461 97.989 173.388 96.8685 170.213C95.1129 165.281 92.0327 175.144 92.0327 175.144C92.0327 175.144 92.0327 173.969 88.7392 170.213C85.4457 166.456 82.5878 173.03 82.5878 173.03C82.5878 173.03 84.1256 157.302 80.3876 158.477C76.6496 159.652 77.0942 173.03 77.0942 173.03C77.0942 173.03 74.4902 163.186 70.9518 163.186C67.4134 163.186 66.556 170.226 66.556 170.226C66.556 170.226 65.6805 157.783 62.1647 157.551C58.649 157.32 54.6932 167.876 54.6932 167.876C54.6932 167.876 55.791 153.813 52.2753 153.088C48.7595 152.362 47.4394 158.255 47.4394 158.255C47.4394 158.255 44.3637 138.771 38.43 141.116C32.4964 143.461 37.55 165.064 37.55 165.064C37.55 165.064 31.6163 150.039 26.785 153.559C22.3892 156.762 27.9826 173.52 29.0532 176.564H98.0797Z" fill="#92E3A9"/>
<path id="Vector_34" d="M27.1615 176.532C27.1615 176.532 24.5893 168.112 25.9049 166.706C27.2204 165.3 32.9364 171.401 32.9364 171.401C32.9364 171.401 28.7628 156.377 35.3543 154.499C41.9457 152.62 43.0662 169.051 43.0662 169.051C43.0662 169.051 47.9021 161.539 48.9999 164.356C49.6646 166.082 50.0357 167.906 50.0977 169.755C50.0977 169.755 52.5156 149.341 58.0093 150.271C63.5029 151.201 58.4629 171.401 58.4629 171.401C58.4629 171.401 61.5386 164.356 65.0544 165.05C68.5701 165.744 69.8902 170.213 69.8902 170.213C69.8902 170.213 71.4281 166.221 72.5259 166.221C73.6237 166.221 74.9438 173.266 74.9438 173.266C74.9438 173.266 76.2639 162.465 78.6818 162.936C81.0998 163.408 86.1534 172.558 86.1534 172.558C86.1534 172.558 85.2733 167.396 87.909 167.16C90.5446 166.924 92.0825 175.144 92.0825 175.144C92.0825 175.144 95.5982 167.396 97.7984 168.793C99.9986 170.19 98.9144 176.759 98.9144 176.759" stroke="#263238" stroke-linecap="round" stroke-linejoin="round"/>
<path id="Vector_35" d="M39.0242 176.414L37.1098 166.47" stroke="#263238" stroke-linecap="round" stroke-linejoin="round"/>
<path id="Vector_36" d="M52.7153 176.564L53.8131 169.99" stroke="#263238" stroke-linecap="round" stroke-linejoin="round"/>
<path id="Vector_37" d="M80.5055 176.532L79.081 171.165" stroke="#263238" stroke-linecap="round" stroke-linejoin="round"/>
<path id="Vector_38" d="M63.4802 176.8L65.8981 172.104" stroke="#263238" stroke-linecap="round" stroke-linejoin="round"/>
<path id="Vector_39" d="M38.6522 172.572L40.4078 168.815" stroke="#263238" stroke-linecap="round" stroke-linejoin="round"/>
<path id="Vector_40" d="M52.7154 174.449L51.1775 171.165" stroke="#263238" stroke-linecap="round" stroke-linejoin="round"/>
<path id="Vector_41" d="M64.578 174.218L63.4802 172.104" stroke="#263238" stroke-linecap="round" stroke-linejoin="round"/>
<path id="Vector_42" d="M80.061 174.536L80.8412 171.632" stroke="#263238" stroke-linecap="round" stroke-linejoin="round"/>
<path id="Vector_43" d="M0.999832 176.65H217.388" stroke="#263238" stroke-linecap="round" stroke-linejoin="round"/>
</g>
<g id="characters-2">
<path id="Vector_44" d="M166.253 138.916L164.04 142.241L145.848 150.148C145.848 150.148 143.317 150.624 143.317 151.413C143.317 152.203 142.841 154.421 143.317 154.739C143.793 155.056 146.946 153.945 146.946 153.945C146.946 153.945 145.998 155.052 146.946 155.369C147.894 155.687 148.843 154.262 148.843 154.262C149.771 153.677 150.669 153.044 151.533 152.366C151.978 151.78 152.35 151.142 152.64 150.465L169.424 146.197L172.904 140.975C172.904 140.975 165.782 140.181 166.253 138.916Z" fill="#B5B5B5" stroke="#263238" stroke-linecap="round" stroke-linejoin="round"/>
<path id="Vector_45" d="M167.519 131.458L165.46 138.217L170.844 141.425L173.017 136.153L167.519 131.458Z" fill="white" stroke="#263238" stroke-linecap="round" stroke-linejoin="round"/>
<path id="Vector_46" d="M165.673 136.04L172.205 139.936L171.058 141.996L164.874 138.789C164.917 137.822 165.191 136.879 165.673 136.04Z" fill="white" stroke="#263238" stroke-linecap="round" stroke-linejoin="round"/>
<path id="Vector_47" d="M152.744 171.768C152.744 171.768 148.162 174.059 146.901 175.089C145.64 176.119 145.413 175.996 145.753 176.808H160.42L160.075 171.537L152.744 171.768Z" fill="white" stroke="#263238" stroke-linecap="round" stroke-linejoin="round"/>
<path id="Vector_48" d="M160.365 176.02H145.753C145.554 176.233 145.576 176.405 145.753 176.822H160.42L160.365 176.02Z" fill="white" stroke="#263238" stroke-linecap="round" stroke-linejoin="round"/>
<path id="Vector_49" d="M172.446 144.518C172.446 144.518 166.834 142.228 162.252 141.769C157.671 141.311 148.162 141.538 147.704 143.584C147.246 145.63 154.463 168.081 154.463 168.081C154.463 168.081 153.202 168.884 153.102 169.442C153.003 170 152.762 171.71 152.762 171.71L160.093 172.853C160.093 172.853 160.32 170.562 160.32 168.389C160.32 166.216 157.802 152.807 157.802 152.807L172.577 157.506L167.079 169.188C167.079 169.188 165.364 172.626 167.311 174.346C169.257 176.065 172.464 175.706 172.464 175.706L198.585 176.051L198.131 171.81C198.131 171.81 194.352 171.238 193.663 171.238C192.973 171.238 179.799 167.917 179.799 167.917C179.799 167.917 190.342 156.917 191.485 155.084C192.166 154.069 192.629 152.925 192.846 151.722C193.063 150.52 193.029 149.286 192.746 148.098C192.057 145.349 191.599 144.772 191.599 144.772C191.599 144.772 183.56 148.633 179.437 147.726C176.911 147.148 174.531 146.056 172.446 144.518Z" fill="#263238" stroke="#263238" stroke-linecap="round" stroke-linejoin="round"/>
<path id="Vector_50" d="M153.774 109.347C153.774 109.347 154.577 111.983 154.577 112.327C154.577 112.672 154.001 114.387 154.463 114.959C154.926 115.53 156.278 115.648 156.278 115.648C156.278 115.648 158.337 118.052 159.254 118.969C160.17 119.885 161.2 120.23 162.348 119.658C163.495 119.087 164.525 117.594 164.525 117.594L166.703 119.772L171.743 113.929L169.928 111.638C169.928 111.638 170.382 109.002 168.667 105.568C166.952 102.134 160.991 101.213 157.094 101.903C153.198 102.592 152.286 104.879 152.286 105.337C152.286 105.795 153.774 109.347 153.774 109.347Z" fill="white" stroke="#263238" stroke-linecap="round" stroke-linejoin="round"/>
<path id="Vector_51" d="M155.838 98.9224C155.838 98.9224 153.429 97.1079 151.828 97.8927C150.226 98.6775 150.92 99.3806 150.68 100.755C150.44 102.13 146.443 102.243 146.443 104.534C146.443 106.825 149.305 107.628 149.877 107.741C150.449 107.855 149.995 110.377 151.692 110.377C153.388 110.377 153.756 109.347 153.756 109.347C153.756 109.347 152.495 105.682 153.869 105.11C155.244 104.539 158.337 103.391 157.879 105.564C157.421 107.737 159.027 108.426 159.943 108.199C160.86 107.973 162.003 108.082 162.212 108.54C162.42 108.998 163.573 109.801 163.573 108.658C163.573 107.514 164.144 106.48 165.174 106.48C166.204 106.48 166.988 108.199 166.893 109.574C166.816 110.402 166.501 111.189 165.986 111.842L169.883 111.611C169.883 111.611 170.912 106.457 169.996 102.792C169.08 99.1266 164.766 97.0897 162.134 96.7449C159.503 96.4002 156.178 97.8927 155.838 98.9224Z" fill="#263238" stroke="#263238" stroke-linecap="round" stroke-linejoin="round"/>
<path id="Vector_52" d="M156.822 111.393C157.108 111.847 157.176 112.3 156.981 112.414C156.786 112.527 156.387 112.3 156.106 111.865C155.824 111.429 155.747 110.958 155.947 110.844C156.146 110.731 156.536 110.98 156.822 111.393Z" fill="#263238"/>
<path id="Vector_53" d="M158.31 116.538C158.858 116.429 159.354 116.142 159.721 115.722C160.089 115.302 160.307 114.772 160.343 114.215" stroke="#263238" stroke-linecap="round" stroke-linejoin="round"/>
<path id="Vector_54" d="M154.822 110.436C154.822 110.436 155.012 109.37 156.273 109.855" stroke="#263238" stroke-linecap="round" stroke-linejoin="round"/>
<path id="Vector_55" d="M166.948 121.718C166.948 121.718 166.04 129.28 167.061 131.571C168.082 133.862 171.761 143.026 171.761 143.026C171.761 143.026 170.958 148.633 173.249 150.13C175.54 151.627 184.245 151.849 187.57 149.785C190.895 147.721 192.265 146.119 192.265 144.632C192.265 143.144 190.088 136.611 186.654 130.083C184.139 125.302 180.668 121.09 176.456 117.708C174.052 115.762 173.135 114.845 172.677 114.845C172.219 114.845 166.721 119.545 166.948 121.718Z" fill="white" stroke="#263238" stroke-linecap="round" stroke-linejoin="round"/>
<path id="Vector_56" d="M171.761 113.357L165.573 120.344L166.834 124.127L173.82 115.077L171.761 113.357Z" fill="white" stroke="#263238" stroke-linecap="round" stroke-linejoin="round"/>
<path id="Vector_57" d="M171.874 138.902C171.874 138.902 159.272 146.12 157.671 146.696C156.069 147.272 150.911 147.268 149.419 147.15C149.236 147.117 149.048 147.125 148.868 147.173C148.689 147.221 148.522 147.309 148.38 147.429C148.238 147.549 148.124 147.698 148.046 147.867C147.969 148.036 147.929 148.22 147.931 148.406L147.704 152.761C147.704 152.761 148.961 153.106 149.519 152.761C150.077 152.416 150.662 151.155 150.662 151.155C150.662 151.155 152.726 151.387 153.411 150.928C153.86 150.623 154.282 150.278 154.672 149.899C156.789 149.723 158.893 149.42 160.973 148.991C163.264 148.415 173.802 144.981 175.408 144.636C177.014 144.292 177.586 143.375 177.699 142.822C177.812 142.268 171.874 138.902 171.874 138.902Z" fill="white" stroke="#263238" stroke-linecap="round" stroke-linejoin="round"/>
<path id="Vector_58" d="M157.507 146.741C155.756 147.263 150.866 147.263 149.419 147.154C149.236 147.121 149.048 147.129 148.868 147.178C148.689 147.226 148.522 147.313 148.38 147.433C148.238 147.553 148.124 147.703 148.046 147.872C147.969 148.041 147.929 148.225 147.931 148.411L147.704 152.766C147.704 152.766 148.961 153.11 149.519 152.766C150.077 152.421 150.662 151.16 150.662 151.16C150.662 151.16 152.726 151.391 153.411 150.933C153.86 150.627 154.282 150.282 154.672 149.903C154.672 149.903 156.595 149.735 158.542 149.449L157.507 146.741Z" fill="#92E3A9" stroke="#263238" stroke-linecap="round" stroke-linejoin="round"/>
<g id="Vector_59">
<path d="M172.791 121.836C172.791 121.836 170.844 124.009 171.071 125.615C171.298 127.221 171.874 138.902 171.874 138.902L178.402 141.538L180.217 132.261C180.217 132.261 181.709 129.852 181.478 127.561" fill="white"/>
<path d="M172.791 121.836C172.791 121.836 170.844 124.009 171.071 125.615C171.298 127.221 171.874 138.902 171.874 138.902L178.402 141.538L180.217 132.261C180.217 132.261 181.709 129.852 181.478 127.561" stroke="#263238" stroke-linecap="round" stroke-linejoin="round"/>
</g>
<path id="Vector_60" d="M171.303 139.478L177.944 143.484C177.944 143.484 178.851 143.484 178.978 141.996C179.105 140.508 179.777 140.276 179.205 139.478C178.633 138.68 172.559 136.153 171.988 136.153C171.416 136.153 170.844 137.527 171.303 139.478Z" fill="white" stroke="#263238" stroke-linecap="round" stroke-linejoin="round"/>
<path id="Vector_61" d="M198.108 171.895C198.108 171.895 201.543 168.92 202.119 169.033C202.695 169.146 207.272 173.501 207.272 173.501C207.272 173.501 211.509 175.792 211.509 176.137C211.509 176.482 210.824 176.591 210.824 176.591L198.576 176.137L198.108 171.895Z" fill="white" stroke="#263238" stroke-linecap="round" stroke-linejoin="round"/>
<path id="Vector_62" d="M211.491 176.137C211.491 175.792 207.254 173.501 207.254 173.501C207.254 173.501 202.672 169.146 202.1 169.033C201.896 168.992 201.325 169.346 200.68 169.818L206.224 173.728L210.261 176.573L210.806 176.595C210.806 176.595 211.491 176.477 211.491 176.137Z" fill="white" stroke="#263238" stroke-linecap="round" stroke-linejoin="round"/>
<path id="Vector_63" d="M172.559 157.579L171.416 152.766" stroke="#999999" stroke-linecap="round" stroke-linejoin="round"/>
<path id="Vector_64" d="M132.702 138.508C131.341 137.736 129.34 136.693 129.34 136.693C129.34 136.693 126.646 129.888 124.532 126.713C122.418 123.537 121.166 123.152 118.857 122.961C116.548 122.771 109.63 124.594 109.33 125.075C109.33 125.075 102.888 128.056 101.255 130.174C99.6221 132.293 100.194 148.728 100.194 148.728C100.194 148.728 93.2802 153.41 91.4565 158.613C90.2952 161.911 91.6471 167.359 97.8983 168.997C99.9838 169.555 102.173 169.603 104.281 169.138C105.905 170.508 107.704 171.656 109.63 172.554C116.071 175.629 120.299 176.205 124.241 176.4C128.184 176.596 132.221 175.343 132.992 174.586C133.763 173.828 135.301 170.834 131.359 166.511C127.961 162.778 117.709 158.622 114.942 157.547C115.217 155.932 115.369 154.299 115.395 152.661C115.395 152.661 121.356 145.857 121.746 144.296C122.137 142.736 123.107 136.412 123.107 136.412C123.107 136.412 126.378 142.377 127.34 143.239C128.302 144.101 133.877 143.434 134.453 143.434C135.029 143.434 135.319 140.935 135.319 140.935C134.588 139.985 133.704 139.165 132.702 138.508Z" fill="white" stroke="#263238" stroke-linecap="round" stroke-linejoin="round"/>
<path id="Vector_65" d="M131.359 166.488C127.961 162.755 117.709 158.599 114.942 157.524C115.028 157.021 115.1 156.531 115.155 156.068C112.568 156.639 109.882 156.585 107.32 155.909C100.012 153.986 98.4744 150.043 98.4744 150.043H98.42C96.238 151.813 92.6859 155.093 91.4565 158.599C90.2952 161.897 91.6471 167.345 97.8983 168.983C99.9838 169.541 102.173 169.589 104.281 169.124C105.905 170.494 107.704 171.642 109.63 172.54C116.071 175.615 120.299 176.192 124.241 176.387C128.184 176.582 132.221 175.33 132.992 174.572C133.763 173.814 135.301 170.811 131.359 166.488Z" fill="#696969" stroke="#263238" stroke-linecap="round" stroke-linejoin="round"/>
<g id="Vector_66">
<path d="M95.2989 159.275C95.2989 159.275 98.7602 155.043 103.283 156.776C119.083 162.832 123.089 169.564 124.151 172.254C125.212 174.944 124.822 176.391 123.96 176.967C123.098 177.543 114.057 175.429 109.729 173.892C105.402 172.354 99.6312 173.12 94.7273 168.988C89.8234 164.855 90.5946 160.822 92.1325 157.352" fill="#696969"/>
<path d="M95.2989 159.275C95.2989 159.275 98.7602 155.043 103.283 156.776C119.083 162.832 123.089 169.564 124.151 172.254C125.212 174.944 124.822 176.391 123.96 176.967C123.098 177.543 114.057 175.429 109.729 173.892C105.402 172.354 99.6312 173.12 94.7273 168.988C89.8234 164.855 90.5946 160.822 92.1325 157.352" stroke="#263238" stroke-linecap="round" stroke-linejoin="round"/>
</g>
<path id="Vector_67" d="M135.301 140.921C134.574 139.981 133.695 139.169 132.702 138.516C131.341 137.745 129.34 136.702 129.34 136.702C129.34 136.702 128.565 134.742 127.526 132.433C126.36 133.404 124.45 135.268 123.715 137.532C124.713 139.301 126.628 142.613 127.344 143.239C128.302 144.105 133.881 143.434 134.457 143.434C135.034 143.434 135.301 140.921 135.301 140.921Z" fill="white" stroke="#263238" stroke-linecap="round" stroke-linejoin="round"/>
<path id="Vector_68" d="M123.089 136.389L122.994 131.199" stroke="#263238" stroke-linecap="round" stroke-linejoin="round"/>
<path id="Vector_69" d="M138.423 149.445C137.342 149.832 136.305 150.331 135.329 150.933C134.421 151.618 134.299 152.194 134.299 153.224C134.299 154.253 132.235 155.628 133.269 155.628C134.303 155.628 135.084 155.283 136.018 153.568C136.953 151.854 138.078 151.346 138.078 151.346C138.149 152.175 138.301 152.995 138.531 153.795C138.852 154.478 138.894 155.259 138.649 155.973C138.418 156.88 139.557 156.662 139.906 154.158C140.091 152.56 139.855 150.942 139.221 149.463L138.423 149.445Z" fill="white" stroke="#263238" stroke-linecap="round" stroke-linejoin="round"/>
<path id="Vector_70" d="M138.196 146.687C138.196 146.687 138.536 148.619 138.422 149.059C138.309 149.499 136.703 150.729 136.131 151.781C135.903 152.209 135.765 152.68 135.726 153.164C135.687 153.648 135.748 154.134 135.905 154.594C136.131 155.297 136.812 157.579 137.161 156.966C137.511 156.354 137.615 155.646 137.615 154.331C137.615 153.015 137.388 151.867 138.069 151.341L138.758 150.815C139.091 151.582 139.359 152.376 139.561 153.187C140.015 154.857 139.216 156.263 139.443 156.526C139.67 156.789 140.591 156.612 140.704 155.909C140.818 155.206 141.276 154.417 141.276 153.01C141.269 152.153 141.012 151.316 140.536 150.602C140.322 150.009 140.149 149.403 140.019 148.787C139.815 147.725 139.112 145.72 138.196 146.687Z" fill="white" stroke="#263238" stroke-linecap="round" stroke-linejoin="round"/>
<path id="Vector_71" d="M141.743 143.602C142.241 144.443 142.695 145.309 143.104 146.197C143.39 146.968 143.585 147.834 143.104 148.011C142.623 148.188 142.238 146.859 141.947 146.283C141.657 145.707 140.686 143.216 141.743 143.602Z" fill="#92E3A9" stroke="#263238" stroke-linecap="round" stroke-linejoin="round"/>
<path id="Vector_72" d="M141.743 143.602C141.167 142.355 137.896 140.427 137.03 139.95C136.426 139.61 134.498 139.56 133.401 139.556C133.138 139.515 132.87 139.515 132.607 139.556C132.607 139.556 131.069 140.708 131.164 141.96C131.2 142.317 131.353 142.652 131.599 142.913C131.845 143.174 132.171 143.346 132.525 143.402H132.979C132.905 143.869 132.986 144.347 133.21 144.763C133.977 145.948 134.444 147.301 134.571 148.706C134.571 149.958 136.014 149.477 136.204 148.515C136.395 147.553 135.918 145.825 135.918 145.439C135.918 145.054 136.685 143.997 136.685 143.997C136.685 143.997 138.804 146.206 139.089 146.687C139.375 147.168 139.475 149.667 140.246 149.862C141.017 150.057 141.013 148.501 141.013 148.501C141.172 148.515 141.333 148.495 141.484 148.443C141.635 148.391 141.774 148.308 141.891 148.2C142.009 148.091 142.103 147.96 142.167 147.814C142.232 147.667 142.265 147.509 142.265 147.349C142.424 146.076 142.244 144.783 141.743 143.602Z" fill="#92E3A9" stroke="#263238" stroke-linecap="round" stroke-linejoin="round"/>
<path id="Vector_73" d="M139.629 143.892C139.629 143.892 141.067 144.754 141.067 145.62C141.067 146.487 140.972 148.506 140.972 148.506" stroke="#263238" stroke-linecap="round" stroke-linejoin="round"/>
<g id="Vector_74">
<path d="M124.437 174.491C124.437 175.852 125.203 176.028 122.223 177.857C119.242 179.685 114.724 178.433 110.301 177.471C105.878 176.509 100.588 175.738 98.5697 175.738C96.551 175.738 91.7287 176.487 89.9142 176.487C88.0996 176.487 85.1101 176.296 85.4957 175.334C85.8813 174.373 90.7806 172.83 91.1662 172.449C91.5518 172.068 91.4566 171.292 92.4183 169.85C92.6358 169.454 92.9879 169.15 93.4108 168.992C93.8336 168.834 94.2991 168.832 94.7228 168.988C96.4213 170.544 98.5314 171.578 100.802 171.968C104.431 172.544 111.086 172.83 113.685 172.83C116.285 172.83 119.551 173.987 119.837 173.987" fill="#696969"/>
<path d="M124.437 174.491C124.437 175.852 125.203 176.028 122.223 177.857C119.242 179.685 114.724 178.433 110.301 177.471C105.878 176.509 100.588 175.738 98.5697 175.738C96.551 175.738 91.7287 176.487 89.9142 176.487C88.0996 176.487 85.1101 176.296 85.4957 175.334C85.8813 174.373 90.7806 172.83 91.1662 172.449C91.5518 172.068 91.4566 171.292 92.4183 169.85C92.6358 169.454 92.9879 169.15 93.4108 168.992C93.8336 168.834 94.2991 168.832 94.7228 168.988C96.4213 170.544 98.5314 171.578 100.802 171.968C104.431 172.544 111.086 172.83 113.685 172.83C116.285 172.83 119.551 173.987 119.837 173.987" stroke="#263238" stroke-linecap="round" stroke-linejoin="round"/>
</g>
<path id="Vector_75" d="M100.802 171.968C98.5379 171.575 96.4344 170.541 94.741 168.988C94.3173 168.832 93.8518 168.834 93.4289 168.992C93.0061 169.15 92.654 169.454 92.4365 169.85C91.4747 171.292 91.57 172.064 91.1844 172.449C90.7988 172.835 85.8949 174.373 85.5138 175.334C85.1328 176.296 88.0996 176.487 89.9142 176.487C91.7288 176.487 96.551 175.715 98.5697 175.715C99.6185 175.745 100.665 175.831 101.704 175.974C101.704 175.888 101.668 175.802 101.645 175.715C101.364 174.518 102.172 172.953 102.621 172.209C101.954 172.136 101.332 172.055 100.802 171.968Z" fill="white" stroke="#263238" stroke-linecap="round" stroke-linejoin="round"/>
<path id="Vector_76" d="M94.7229 168.988C94.2991 168.832 93.8336 168.834 93.4108 168.992C92.988 169.15 92.6359 169.454 92.4183 169.85C91.4566 171.292 91.5519 172.064 91.1663 172.449C90.7807 172.835 85.8768 174.373 85.4957 175.334C85.3551 175.675 85.6454 175.915 86.1535 176.087C87.2831 174.876 90.8714 173.869 91.874 173.139C92.8765 172.408 92.128 172.159 93.185 170.716C93.4482 170.379 93.776 170.098 94.1491 169.89C94.5222 169.681 94.9331 169.549 95.358 169.501C94.9406 169.201 94.7229 168.988 94.7229 168.988Z" stroke="#263238" stroke-linecap="round" stroke-linejoin="round"/>
<g id="Vector_77">
<path d="M103.569 128.219C103.569 128.219 99.6267 129.757 98.8601 132.928C98.0934 136.099 99.5314 155.814 99.5314 156.295C99.5314 156.776 102.126 157.257 106.168 157.656C110.21 158.055 117.704 158.137 117.704 158.137C117.704 158.137 120.975 159.575 121.647 159.575C122.318 159.575 123.761 158.713 123.761 158.713C123.761 158.713 123.57 159.575 124.337 159.384C125.103 159.194 127.703 157.075 127.703 156.694C127.703 156.313 125.974 154.48 124.917 154.29C123.86 154.099 119.147 155.923 118.666 155.923C118.185 155.923 109.82 154.108 108.282 153.423C107.059 152.927 105.806 152.509 104.531 152.171L105.207 135.541" fill="white"/>
<path d="M103.569 128.219C103.569 128.219 99.6267 129.757 98.8601 132.928C98.0934 136.099 99.5314 155.814 99.5314 156.295C99.5314 156.776 102.126 157.257 106.168 157.656C110.21 158.055 117.704 158.137 117.704 158.137C117.704 158.137 120.975 159.575 121.647 159.575C122.318 159.575 123.761 158.713 123.761 158.713C123.761 158.713 123.57 159.575 124.337 159.384C125.103 159.194 127.703 157.075 127.703 156.694C127.703 156.313 125.974 154.48 124.917 154.29C123.86 154.099 119.147 155.923 118.666 155.923C118.185 155.923 109.82 154.108 108.282 153.423C107.059 152.927 105.806 152.509 104.531 152.171L105.207 135.541" stroke="#263238" stroke-linecap="round" stroke-linejoin="round"/>
</g>
<path id="Vector_78" d="M124.918 154.276C123.856 154.081 119.147 155.909 118.666 155.909C118.185 155.909 109.82 154.095 108.282 153.41C107.06 152.914 105.806 152.496 104.531 152.158L104.898 143.044L98.7786 142.808C99.0371 149.109 99.5316 156.014 99.5316 156.295C99.5316 156.776 102.126 157.257 106.168 157.656C110.21 158.055 117.705 158.137 117.705 158.137C117.705 158.137 120.975 159.575 121.647 159.575C122.318 159.575 123.761 158.713 123.761 158.713C123.761 158.713 123.57 159.575 124.337 159.384C125.104 159.194 127.703 157.075 127.703 156.694C127.703 156.313 125.975 154.467 124.918 154.276Z" fill="white" stroke="#263238" stroke-linecap="round" stroke-linejoin="round"/>
<path id="Vector_79" d="M127.703 156.68C127.703 156.295 125.974 154.467 124.917 154.276C123.86 154.086 119.147 155.909 118.666 155.909C118.516 155.909 117.6 155.732 116.362 155.456C115.908 155.909 115.477 156.69 115.622 158.069L117.704 158.109C117.704 158.109 120.975 159.548 121.647 159.548C122.318 159.548 123.761 158.686 123.761 158.686C123.761 158.686 123.57 159.548 124.337 159.357C125.103 159.166 127.703 157.062 127.703 156.68Z" fill="#92E3A9" stroke="#263238" stroke-linecap="round" stroke-linejoin="round"/>
<path id="Vector_80" d="M106.744 109.37C106.744 109.37 103.088 106.489 101.645 107.451C100.203 108.413 94.1467 116.102 93.5706 118.216C92.9945 120.33 96.1654 120.815 95.0132 122.544C93.8609 124.272 91.6471 124.948 92.5136 127.08C93.38 129.212 96.8414 129.389 97.608 129.87C98.3747 130.351 99.6267 132.179 102.417 131.408C105.207 130.637 104.626 127.08 106.744 126.599C108.863 126.118 108.668 123.238 107.706 120.929C106.744 118.62 106.168 115.449 107.321 114.006C108.473 112.563 106.744 109.37 106.744 109.37Z" fill="#263238" stroke="#263238" stroke-linecap="round" stroke-linejoin="round"/>
<path id="Vector_81" d="M108.877 107.392C108.877 107.392 105.928 107.56 104.535 111.243C103.142 114.927 104.535 120.416 104.943 121.319C105.352 122.222 107.484 123.133 108.795 122.38C110.106 121.627 111.907 118.778 113.213 118.039C114.52 117.3 117.146 114.192 117.146 114.192L119.029 116.565C119.029 116.565 120.258 116.401 120.748 114.029C121.238 111.656 119.442 109.116 116.493 107.642C113.545 106.167 110.351 106.249 108.877 107.392Z" fill="#263238" stroke="#263238" stroke-linecap="round" stroke-linejoin="round"/>
<path id="Vector_82" d="M108.473 123.986C108.473 123.986 108.568 126.872 109.244 128.124C109.92 129.376 111.648 134.928 113.858 135.141C116.067 135.355 115.972 127.352 115.972 127.352C115.972 127.352 113.377 127.448 111.839 125.815C110.301 124.181 108.668 123.229 108.473 123.986Z" stroke="#263238" stroke-linecap="round" stroke-linejoin="round"/>
<path id="Vector_83" d="M117.473 111.815C117.473 111.815 114.034 115.83 111.331 117.549C108.627 119.268 107.402 119.513 107.402 119.513C107.402 119.513 108.464 119.35 107.729 120.089C106.994 120.829 106.822 120.997 106.418 120.334C106.014 119.672 104.372 119.023 104.041 120.661C103.9 121.345 104.005 122.056 104.337 122.67C104.669 123.284 105.206 123.761 105.855 124.018C106.554 124.312 107.33 124.37 108.065 124.181C108.065 124.181 108.309 126.967 111.585 128.604C114.86 130.242 117.895 127.951 118.793 126.232C119.691 124.512 119.369 116.732 119.201 115.421C119.034 114.11 117.473 111.815 117.473 111.815Z" fill="white" stroke="#263238" stroke-linecap="round" stroke-linejoin="round"/>
<path id="Vector_84" d="M116.648 119.563C116.648 119.563 116.452 121.101 116.743 121.197C117.033 121.292 118.104 121.677 117.705 122.258C117.305 122.839 116.743 123.22 116.071 122.93" stroke="#263238" stroke-linecap="round" stroke-linejoin="round"/>
<path id="Vector_85" d="M112.32 124.277C112.32 124.277 113.091 125.524 116.071 124.853" stroke="#263238" stroke-linecap="round" stroke-linejoin="round"/>
<path id="Vector_86" d="M114.053 120.189C114.053 120.643 113.835 121.006 113.572 121.006C113.309 121.006 113.091 120.638 113.091 120.189C113.091 119.74 113.304 119.373 113.572 119.373C113.839 119.373 114.053 119.735 114.053 120.189Z" fill="#263238"/>
<path id="Vector_87" d="M118.185 119.709C118.185 120.162 117.972 120.525 117.704 120.525C117.437 120.525 117.224 120.158 117.224 119.709C117.224 119.26 117.437 118.892 117.704 118.892C117.972 118.892 118.185 119.255 118.185 119.709Z" fill="#263238"/>
<path id="Vector_88" d="M112.143 118.692C112.405 118.37 112.747 118.121 113.134 117.97C113.521 117.819 113.941 117.771 114.352 117.83" stroke="#263238" stroke-linecap="round" stroke-linejoin="round"/>
<path id="Vector_89" d="M116.743 117.735C116.743 117.735 117.319 116.488 118.557 117.354" stroke="#263238" stroke-linecap="round" stroke-linejoin="round"/>
<path id="Vector_90" d="M148.734 151.504C148.734 151.504 139.452 154.485 136.939 155.401C134.426 156.318 126.17 156.431 125.598 157.347C125.026 158.264 120.916 163.444 120.113 166.42C119.31 169.396 120.377 177.457 121.143 177.961C124.223 179.998 132.325 179.372 135.755 179.24C142.029 179.009 148.103 181.273 151.633 174.885C152.776 172.821 151.125 165.595 150.898 163.19C150.671 160.786 149.863 156.776 149.75 156.2C149.637 155.623 150.453 151.963 148.734 151.504Z" fill="white" stroke="#263238" stroke-linecap="round" stroke-linejoin="round"/>
<path id="Vector_91" d="M137.125 163.149C142.033 161.416 146.22 156.345 147.522 155.492C148.824 154.639 149.537 152.77 149.537 152.77C147.481 154.156 145.248 155.26 142.9 156.054" stroke="#263238" stroke-linecap="round" stroke-linejoin="round"/>
<path id="Vector_92" d="M149.401 153.596C148.473 156.462 146.832 159.045 144.633 161.104" stroke="#263238" stroke-linecap="round" stroke-linejoin="round"/>
<path id="Vector_93" d="M127.449 157.638C127.449 157.638 128.891 158.359 133.8 158.359" stroke="#263238" stroke-linecap="round" stroke-linejoin="round"/>
<path id="Vector_94" d="M126.868 157.783C126.868 157.783 128.025 162.836 134.526 164.86" stroke="#263238" stroke-linecap="round" stroke-linejoin="round"/>
<path id="Vector_95" d="M125.716 159.521C126.702 161.259 128.027 162.782 129.613 163.998" stroke="#263238" stroke-linecap="round" stroke-linejoin="round"/>
</g>
<g id="character-1">
<path id="Vector_96" d="M34.5428 135.373C34.5428 135.373 37.1059 142.681 37.1059 145.63C37.1059 148.579 39.1564 164.733 39.4104 166.529C39.5807 167.645 39.9283 168.726 40.4402 169.732C42.1913 171.35 44.1802 172.691 46.3376 173.706C50.0529 175.521 49.9259 174.99 49.2863 175.756C48.6466 176.523 42.7447 176.664 40.0546 176.401C37.3645 176.138 34.6699 177.04 34.5428 175.888C34.4158 174.736 34.4113 170.118 34.4113 168.067C34.4113 166.017 29.0265 155.891 28.3869 152.68C27.7472 149.468 28.0013 144.478 28.0013 144.478L24.7986 136.766L34.5428 135.373Z" fill="white" stroke="#263238" stroke-linecap="round" stroke-linejoin="round"/>
<path id="Vector_97" d="M39.56 171.016V172.831L34.4429 171.846C34.4429 173.579 34.4883 175.271 34.5609 175.929C34.6879 177.081 37.378 176.183 40.0727 176.442C42.7673 176.7 48.6601 176.569 49.3043 175.797C49.9485 175.026 50.071 175.543 46.3556 173.747C44.1993 172.73 42.2107 171.39 40.4583 169.773C40.4583 169.773 39.56 169.859 39.56 171.016Z" fill="#263238" stroke="#263238" stroke-linecap="round" stroke-linejoin="round"/>
<path id="Vector_98" d="M24.0272 136.144C24.0272 136.144 24.3992 144.178 23.1199 147.426C16.7099 163.835 16.4559 169.991 16.4559 169.991C16.4559 169.991 22.875 174.858 24.2858 175.398C25.6966 175.938 26.4633 176.165 25.5651 176.804C24.6669 177.444 16.592 177.317 15.1812 177.317C13.7703 177.317 10.309 176.292 9.92796 175.652C9.5469 175.012 10.8352 169.882 10.8352 169.882C10.8352 169.882 11.4794 157.062 11.4794 154.113C11.4794 151.164 14.6822 145.399 14.6822 144.369C14.6822 143.339 14.0425 135.654 14.0425 135.654C14.0425 135.654 21.7227 137.555 24.0272 136.144Z" fill="white" stroke="#263238" stroke-linecap="round" stroke-linejoin="round"/>
<path id="Vector_99" d="M25.5651 176.782C26.4724 176.142 25.6967 175.875 24.2859 175.375C22.875 174.876 16.465 169.991 16.465 169.991C16.465 169.991 15.8254 170.245 15.8254 171.27C15.8543 171.81 15.7199 172.346 15.4398 172.808C15.4398 172.808 13.3893 172.427 10.9533 171.901C10.7491 171.86 10.5631 171.819 10.3817 171.774C10.0505 173.302 9.7012 175.244 9.92802 175.62C10.3091 176.26 13.7704 177.285 15.1812 177.285C16.5921 177.285 24.6715 177.426 25.5651 176.782Z" fill="#263238" stroke="#263238" stroke-linecap="round" stroke-linejoin="round"/>
<path id="Vector_100" d="M34.6697 97.5527L39.4102 104.475L59.0258 101.658V105.374C59.0258 105.374 39.56 110.758 38.7706 110.119C37.9813 109.479 31.4624 106.399 31.4624 106.399L34.6697 97.5527Z" fill="#B5B5B5" stroke="#263238" stroke-linecap="round" stroke-linejoin="round"/>
<path id="Vector_101" d="M17.1047 88.4525C17.1047 88.4525 15.6938 96.6589 15.6938 99.9887V111.783C15.6938 111.783 11.611 118.325 10.9532 124.091C10.2955 129.857 10.1821 136.271 10.1821 136.271C10.1821 136.271 16.338 138.966 21.3372 138.58C24.3118 138.353 27.2674 137.923 30.1832 137.292L37.2329 135.627L31.9751 111.783C31.9751 111.783 34.5427 104.979 34.9238 104.607C35.3049 104.235 36.7384 99.6167 36.2076 96.1418C35.6769 92.6669 33.7716 85.5038 29.7976 83.5804C25.8237 81.6569 18.9011 83.966 17.1047 88.4525Z" fill="#5E5E5E" stroke="#263238" stroke-linecap="round" stroke-linejoin="round"/>
<path id="Vector_102" d="M22.9475 111.888C22.6695 113.979 21.7901 115.944 20.4162 117.545C18.1479 120.162 16.2789 120.666 16.2789 120.666C16.2789 120.666 15.1811 131.322 15.603 135.477" stroke="#263238" stroke-linecap="round" stroke-linejoin="round"/>
<path id="Vector_103" d="M24.1361 112.242C23.9084 114.207 23.275 116.104 22.2762 117.812C20.6703 120.43 17.2861 121.36 17.2861 121.36" stroke="#263238" stroke-linecap="round" stroke-linejoin="round"/>
<path id="Vector_104" d="M32.1067 87.5543C31.4353 85.2634 29.4892 83.7527 28.5365 83.1312C25.5742 82.4009 21.6729 83.4352 19.1688 85.6354C19.1234 85.9076 19.0916 86.1525 19.0281 86.402C18.9011 86.9146 16.9777 98.0652 16.9777 98.0652C16.9777 98.0652 17.4313 98.156 18.139 98.283C17.4313 101.889 18.2252 107.905 18.2252 107.905C18.2252 107.905 22.0131 109.125 24.9437 109.003C27.8742 108.88 31.2947 107.188 31.2947 107.188C31.2947 106.158 32.1521 100.991 32.5558 98.6141H32.7463C32.7463 98.6141 33.0004 90.63 32.1067 87.5543Z" fill="white" stroke="#263238" stroke-linecap="round" stroke-linejoin="round"/>
<g id="Vector_105">
<path d="M26.7763 97.4028C26.7763 97.4028 22.2398 101.939 19.9353 102.651L26.7763 97.4028Z" fill="white"/>
<path d="M26.7763 97.4028C26.7763 97.4028 22.2398 101.939 19.9353 102.651" stroke="#263238" stroke-linecap="round" stroke-linejoin="round"/>
</g>
<g id="Vector_106">
<path d="M26.7764 99.7212C26.7764 99.7212 24.2088 102.044 22.1357 103.754L26.7764 99.7212Z" fill="white"/>
<path d="M26.7764 99.7212C26.7764 99.7212 24.2088 102.044 22.1357 103.754" stroke="#263238" stroke-linecap="round" stroke-linejoin="round"/>
</g>
<path id="Vector_107" d="M36.6567 133.014C34.3881 134.225 31.8565 134.859 29.285 134.86C29.285 134.86 25.4381 136.53 19.4137 136.271C16.1997 136.097 13.0703 135.177 10.2728 133.586C10.2047 135.219 10.1821 136.271 10.1821 136.271C10.1821 136.271 16.338 138.966 21.3372 138.58C24.3118 138.353 27.2674 137.923 30.1832 137.292L37.2329 135.627L36.6567 133.014Z" fill="white" stroke="#263238" stroke-linecap="round" stroke-linejoin="round"/>
<path id="Vector_108" d="M29.4121 137.555L29.6707 123.578" stroke="#263238" stroke-linecap="round" stroke-linejoin="round"/>
<path id="Vector_109" d="M42.105 70.6332V73.963C42.105 73.963 43.7699 75.2468 42.7447 76.145C42.3325 76.5604 41.8561 76.9066 41.3338 77.1703C41.3338 77.1703 40.6942 80.119 39.2833 81.5298C37.8725 82.9406 37.1059 82.682 35.0554 81.2712C33.0049 79.8604 31.7211 78.9667 31.7211 78.9667C31.7211 78.9667 33.0004 72.6837 33.8986 70.6332C34.7968 68.5828 37.6185 68.3242 39.0293 68.5782C40.4401 68.8323 42.105 70.6332 42.105 70.6332Z" fill="white" stroke="#263238" stroke-linecap="round" stroke-linejoin="round"/>
<path id="Vector_110" d="M40.7033 73.7134C40.7033 74.099 40.531 74.412 40.3223 74.412C40.1136 74.412 39.9412 74.099 39.9412 73.7134C39.9412 73.3278 40.1091 73.0103 40.3223 73.0103C40.5355 73.0103 40.7033 73.3278 40.7033 73.7134Z" fill="#263238"/>
<path id="Vector_111" d="M39.492 72.0579C39.492 72.0579 40.1952 70.9147 41.1478 71.8674" stroke="#263238" stroke-linecap="round" stroke-linejoin="round"/>
<path id="Vector_112" d="M38.5394 77.4106C38.9607 77.8393 39.5309 78.0895 40.1317 78.1093" stroke="#263238" stroke-linecap="round" stroke-linejoin="round"/>
<path id="Vector_113" d="M36.3846 69.5539C36.3846 69.5539 33.69 76.0138 33.8261 79.1121C33.9622 82.2105 37.4552 91.0974 35.9809 94.0597C34.5065 97.022 31.3945 99.1859 29.1263 95.6747C26.8581 92.1635 26.0279 91.0974 24.549 93.2477C23.0702 95.398 21.3191 99.3084 17.9531 99.3084C14.587 99.3084 10.5269 94.8672 12.5456 90.1539C14.5643 85.4405 19.1461 83.4218 21.9723 78.8445C24.0474 75.5919 25.5081 71.9863 26.282 68.2065L36.6477 68.6103L36.3846 69.5539Z" fill="#263238" stroke="#263238" stroke-linecap="round" stroke-linejoin="round"/>
<path id="Vector_114" d="M26.0098 70.2251H42.1686C42.1686 70.2251 42.1686 63.3569 40.8076 62.2818C39.4467 61.2066 28.8269 61.4743 27.6157 62.2818C26.4044 63.0893 25.4971 69.4176 26.0098 70.2251Z" fill="#92E3A9" stroke="#263238" stroke-linecap="round" stroke-linejoin="round"/>
<path id="Vector_115" d="M37.006 70.1523C37.006 70.1523 40.7758 71.6312 44.1418 71.6312C47.5078 71.6312 49.2589 70.1523 49.2589 70.1523H37.006Z" fill="#92E3A9" stroke="#263238" stroke-linecap="round" stroke-linejoin="round"/>
<path id="Vector_116" d="M63.5125 101.001C63.5125 101.001 64.9234 100.747 64.9234 101.772C64.9234 102.797 63.2585 102.679 61.8477 102.157C60.4368 101.636 62.3603 101.273 63.5125 101.001Z" fill="#B5B5B5" stroke="#263238" stroke-linecap="round" stroke-linejoin="round"/>
<path id="Vector_117" d="M63.7711 102.298C63.7711 102.298 65.182 102.039 65.182 103.069C65.182 104.099 63.5126 103.976 62.1063 103.45C60.7 102.924 62.6189 102.557 63.7711 102.298Z" fill="#B5B5B5" stroke="#263238" stroke-linecap="round" stroke-linejoin="round"/>
<path id="Vector_118" d="M64.0297 103.582C64.0297 103.582 65.436 103.323 65.436 104.348C65.436 105.374 63.7712 105.256 62.3603 104.734C60.9495 104.212 62.873 103.836 64.0297 103.582Z" fill="#B5B5B5" stroke="#263238" stroke-linecap="round" stroke-linejoin="round"/>
<path id="Vector_119" d="M63.7755 104.892C63.7755 104.892 65.1864 104.634 65.1864 105.659C65.1864 106.684 63.517 106.566 62.1107 106.045C60.7044 105.523 62.6233 105.146 63.7755 104.892Z" fill="#B5B5B5" stroke="#263238" stroke-linecap="round" stroke-linejoin="round"/>
<path id="Vector_120" d="M57.6151 102.298C57.6151 102.298 49.6672 119.731 49.6672 120.897C49.6672 122.063 49.6672 125.125 50.4384 126.922C51.2096 128.718 55.8232 132.048 57.8736 132.433C59.9241 132.819 68.6431 130.769 69.6684 130.51C70.6936 130.251 73.3883 123.075 73.2567 121.664C73.1252 120.253 69.7954 114.859 69.2828 113.975C68.7702 113.09 64.5422 107.306 64.0296 106.263C63.517 105.219 61.9746 102.547 61.9746 102.547L57.6151 102.298Z" fill="white" stroke="#263238" stroke-linecap="round" stroke-linejoin="round"/>
<path id="Vector_121" d="M59.0259 105.374L58.0006 112.94" stroke="#263238" stroke-linecap="round" stroke-linejoin="round"/>
<path id="Vector_122" d="M60.8223 104.475V114.478" stroke="#263238" stroke-linecap="round" stroke-linejoin="round"/>
<path id="Vector_123" d="M62.1063 103.45L65.6946 114.732" stroke="#263238" stroke-linecap="round" stroke-linejoin="round"/>
<path id="Vector_124" d="M36.8383 103.323C36.8383 103.323 30.5598 87.4455 28.8904 86.6561C27.221 85.8668 22.2354 86.0301 22.7481 91.9275C23.2607 97.8248 33.132 110.132 34.4113 110.259C35.6905 110.386 55.8233 103.722 55.8233 103.722C55.8233 103.722 62.6279 104.63 63.1315 103.849C63.635 103.069 63.7711 100.261 63.7711 100.261C63.7711 100.261 64.6784 98.3375 63.7711 97.6978C62.8638 97.0582 58.781 97.4392 58.1323 97.4392C57.4836 97.4392 54.4124 100.515 54.4124 100.515L36.8383 103.323Z" fill="white" stroke="#263238" stroke-linecap="round" stroke-linejoin="round"/>
<path id="Vector_125" d="M63.1496 103.836C63.6623 103.069 63.7893 100.247 63.7893 100.247C63.7893 100.247 64.6966 98.3238 63.7893 97.6842C62.882 97.0446 58.7992 97.4256 58.1505 97.4256C57.5018 97.4256 54.4306 100.501 54.4306 100.501L51.0963 101.037L51.6634 105.079C54.1267 104.276 55.8414 103.718 55.8414 103.718C55.8414 103.718 62.6189 104.63 63.1496 103.836Z" fill="#92E3A9" stroke="#263238" stroke-linecap="round" stroke-linejoin="round"/>
<path id="Vector_126" d="M65.4359 95.8877L72.7441 99.7346L71.3333 102.298L65.4359 95.8877Z" fill="white" stroke="#263238" stroke-linecap="round" stroke-linejoin="round"/>
<path id="Vector_127" d="M59.4115 97.1714L60.4367 94.4768C60.4367 94.4768 61.2079 94.0912 64.0296 94.8624C66.8512 95.6336 72.3585 103.45 72.3585 103.45C72.3585 103.45 68.3846 106.272 67.7449 106.399C67.1053 106.526 64.7962 99.5939 64.5422 98.9633C64.3389 98.5067 64.0798 98.077 63.771 97.684L59.4115 97.1714Z" fill="white" stroke="#263238" stroke-linecap="round" stroke-linejoin="round"/>
<path id="Vector_128" d="M63.7711 97.6843L61.5029 96.21" stroke="#263238" stroke-linecap="round" stroke-linejoin="round"/>
</g>
<g id="trash-can">
<path id="Vector_129" d="M78.8953 126.005H46.5596V176.677H78.8953V126.005Z" fill="#92E3A9" stroke="#263238" stroke-linecap="round" stroke-linejoin="round"/>
<path id="Vector_130" d="M78.8182 143.189H46.6367C46.4081 143.189 46.1888 143.098 46.0272 142.937C45.8656 142.775 45.7747 142.556 45.7747 142.327C45.7747 142.099 45.8656 141.879 46.0272 141.718C46.1888 141.556 46.4081 141.465 46.6367 141.465H78.8182C79.0468 141.465 79.266 141.556 79.4277 141.718C79.5893 141.879 79.6801 142.099 79.6801 142.327C79.6801 142.556 79.5893 142.775 79.4277 142.937C79.266 143.098 79.0468 143.189 78.8182 143.189Z" fill="#92E3A9" stroke="#263238" stroke-linecap="round" stroke-linejoin="round"/>
<path id="Vector_131" d="M78.8181 126.767H46.6366C46.408 126.767 46.1888 126.676 46.0271 126.515C45.8655 126.353 45.7747 126.134 45.7747 125.905C45.7747 125.677 45.8655 125.458 46.0271 125.296C46.1888 125.134 46.408 125.043 46.6366 125.043H78.8181C79.0467 125.043 79.2659 125.134 79.4276 125.296C79.5892 125.458 79.68 125.677 79.68 125.905C79.68 126.134 79.5892 126.353 79.4276 126.515C79.2659 126.676 79.0467 126.767 78.8181 126.767Z" fill="#92E3A9" stroke="#263238" stroke-linecap="round" stroke-linejoin="round"/>
<path id="Vector_132" d="M78.8182 160.355H46.6367C46.4081 160.355 46.1888 160.264 46.0272 160.103C45.8656 159.941 45.7747 159.722 45.7747 159.493C45.7747 159.265 45.8656 159.045 46.0272 158.884C46.1888 158.722 46.4081 158.631 46.6367 158.631H78.8182C79.0468 158.631 79.266 158.722 79.4277 158.884C79.5893 159.045 79.6801 159.265 79.6801 159.493C79.6801 159.722 79.5893 159.941 79.4277 160.103C79.266 160.264 79.0468 160.355 78.8182 160.355Z" fill="#92E3A9" stroke="#263238" stroke-linecap="round" stroke-linejoin="round"/>
</g>
</g>
</svg>
